<svg width="40" height="41" viewBox="0 0 40 41" fill="none" xmlns="http://www.w3.org/2000/svg">
<path opacity="0.5" d="M16.73 9.48305L17.8117 11.4214C18.7867 13.1714 18.395 15.4647 16.8583 17.003C16.8583 17.003 14.9917 18.868 18.375 22.2497C21.7533 25.628 23.62 23.7664 23.62 23.7664C25.1583 22.228 27.4533 21.8364 29.2017 22.8114L31.14 23.8947C33.7817 25.368 34.0933 29.0714 31.7717 31.3947C30.3767 32.788 28.6667 33.8747 26.7783 33.9447C23.5983 34.0664 18.1967 33.2614 12.7783 27.8447C7.36167 22.4264 6.55667 17.0247 6.67834 13.8447C6.75 11.9564 7.835 10.2464 9.22834 8.85138C11.5517 6.52971 15.255 6.84138 16.7283 9.48471" fill="#9747FF"/>
<path d="M22.1 3.75638C22.1536 3.42921 22.3348 3.13667 22.6038 2.94294C22.8728 2.74921 23.2077 2.67013 23.535 2.72305C23.5767 2.73138 23.7133 2.75638 23.785 2.77305C23.9267 2.80305 24.125 2.85305 24.3717 2.92305C24.8667 3.06805 25.5583 3.30638 26.3883 3.68638C28.0483 4.44805 30.2567 5.77971 32.55 8.07138C34.8433 10.3647 36.175 12.5747 36.9367 14.2347C37.3167 15.0647 37.5533 15.7547 37.6983 16.2514C37.7714 16.5009 37.8342 16.7534 37.8867 17.008L37.895 17.0597C37.9499 17.3898 37.8728 17.7282 37.6804 18.0019C37.4881 18.2757 37.1958 18.4628 36.8667 18.523C36.5403 18.576 36.2063 18.4976 35.9376 18.3049C35.669 18.1121 35.4877 17.8208 35.4333 17.4947C35.3992 17.3105 35.3541 17.1285 35.2983 16.9497C35.128 16.3773 34.9164 15.8181 34.665 15.2764C34.015 13.8597 32.845 11.903 30.7817 9.83971C28.72 7.77638 26.7633 6.60805 25.345 5.95805C24.8038 5.70674 24.2451 5.49508 23.6733 5.32471C23.498 5.27524 23.3212 5.23078 23.1433 5.19138C22.8159 5.13687 22.5231 4.95589 22.3279 4.68745C22.1327 4.41901 22.0509 4.08462 22.1 3.75638Z" fill="#9747FF"/>
<path fill-rule="evenodd" clip-rule="evenodd" d="M22.4767 9.50638C22.5216 9.34844 22.5972 9.20091 22.6992 9.0722C22.8012 8.9435 22.9275 8.83615 23.071 8.75628C23.2145 8.67642 23.3723 8.62561 23.5354 8.60675C23.6985 8.58789 23.8637 8.60136 24.0217 8.64638L24.0267 8.64805L24.0317 8.64971L24.045 8.65305L24.0783 8.66305L24.1717 8.69638C24.6146 8.86702 25.0423 9.07499 25.45 9.31805C26.265 9.80138 27.3783 10.6014 28.6867 11.9114C29.995 13.2197 30.7967 14.333 31.28 15.148C31.5217 15.5564 31.6817 15.888 31.785 16.1314C31.8404 16.2587 31.8905 16.3882 31.935 16.5197L31.9433 16.553L31.9483 16.5664V16.5714L31.95 16.573C31.95 16.573 31.95 16.5764 30.75 16.9197L31.95 16.5764C32.0346 16.8918 31.9925 17.2277 31.8326 17.5124C31.6728 17.7972 31.4078 18.008 31.0945 18.0999C30.7811 18.1918 30.4443 18.1574 30.156 18.0041C29.8676 17.8509 29.6507 17.5909 29.5517 17.2797L29.5467 17.263C29.4295 16.9728 29.2902 16.692 29.13 16.423C28.7567 15.7947 28.085 14.8447 26.9183 13.678C25.7517 12.5114 24.8033 11.8414 24.175 11.4697C23.9061 11.3095 23.6253 11.1702 23.335 11.053L23.3183 11.0464C23.0035 10.9517 22.7386 10.7368 22.5811 10.4483C22.4235 10.1597 22.386 9.8224 22.4767 9.50638Z" fill="#9747FF"/>
</svg>
