<svg width="48" height="48" viewBox="0 0 48 48" fill="none" xmlns="http://www.w3.org/2000/svg">
<g filter="url(#filter0_d_7_357)">
<circle cx="24.0234" cy="21.1465" r="16.4766" fill="url(#paint0_angular_7_357)"/>
<ellipse cx="24.1257" cy="21.2488" rx="13.9181" ry="13.9181" fill="white"/>
<path d="M10.0303 17.8128C9.42537 17.8401 8.84068 17.5919 8.44015 17.1379L7.67215 16.2672C6.95305 15.4519 7.03829 14.2064 7.86176 13.4967C8.42493 13.0113 9.21487 12.8879 9.89923 13.1784L11.8649 14.0128C12.5492 14.3033 13.0092 14.9572 13.0513 15.6995C13.1128 16.7848 12.276 17.7114 11.1901 17.7604L10.0303 17.8128Z" fill="#3162C9"/>
<g filter="url(#filter1_d_7_357)">
<path fill-rule="evenodd" clip-rule="evenodd" d="M23.3436 22.0939C23.0743 21.9095 22.8976 21.5998 22.8976 21.2488V13.8804C22.8976 13.3152 23.3558 12.857 23.921 12.857C24.4862 12.857 24.9444 13.3152 24.9444 13.8804V20.8001L32.0035 27.8592C32.4032 28.2588 32.4032 28.9068 32.0035 29.3065C31.6039 29.7061 30.9559 29.7061 30.5562 29.3065L23.3436 22.0939Z" fill="url(#paint1_linear_7_357)"/>
</g>
</g>
<defs>
<filter id="filter0_d_7_357" x="0.183899" y="0.669861" width="47.3161" height="46.9532" filterUnits="userSpaceOnUse" color-interpolation-filters="sRGB">
<feFlood flood-opacity="0" result="BackgroundImageFix"/>
<feColorMatrix in="SourceAlpha" type="matrix" values="0 0 0 0 0 0 0 0 0 0 0 0 0 0 0 0 0 0 127 0" result="hardAlpha"/>
<feOffset dy="3"/>
<feGaussianBlur stdDeviation="3.5"/>
<feComposite in2="hardAlpha" operator="out"/>
<feColorMatrix type="matrix" values="0 0 0 0 0 0 0 0 0 0 0 0 0 0 0 0 0 0 0.2 0"/>
<feBlend mode="normal" in2="BackgroundImageFix" result="effect1_dropShadow_7_357"/>
<feBlend mode="normal" in="SourceGraphic" in2="effect1_dropShadow_7_357" result="shape"/>
</filter>
<filter id="filter1_d_7_357" x="17.8976" y="9.85699" width="19.4056" height="26.7492" filterUnits="userSpaceOnUse" color-interpolation-filters="sRGB">
<feFlood flood-opacity="0" result="BackgroundImageFix"/>
<feColorMatrix in="SourceAlpha" type="matrix" values="0 0 0 0 0 0 0 0 0 0 0 0 0 0 0 0 0 0 127 0" result="hardAlpha"/>
<feOffset dy="2"/>
<feGaussianBlur stdDeviation="2.5"/>
<feComposite in2="hardAlpha" operator="out"/>
<feColorMatrix type="matrix" values="0 0 0 0 0 0 0 0 0 0 0 0 0 0 0 0 0 0 0.15 0"/>
<feBlend mode="normal" in2="BackgroundImageFix" result="effect1_dropShadow_7_357"/>
<feBlend mode="normal" in="SourceGraphic" in2="effect1_dropShadow_7_357" result="shape"/>
</filter>
<radialGradient id="paint0_angular_7_357" cx="0" cy="0" r="1" gradientUnits="userSpaceOnUse" gradientTransform="translate(23.6141 21.914) rotate(-154.449) scale(12.9313)">
<stop stop-color="#3061C8"/>
<stop offset="1" stop-color="#6ABCFB"/>
</radialGradient>
<linearGradient id="paint1_linear_7_357" x1="31.7141" y1="29.5959" x2="23.0689" y2="20.6805" gradientUnits="userSpaceOnUse">
<stop offset="0.0885417" stop-color="#414347"/>
<stop offset="1" stop-color="#6B6E70"/>
</linearGradient>
</defs>
</svg>
