<svg width="42" height="42" viewBox="0 0 42 42" fill="none" xmlns="http://www.w3.org/2000/svg">
<path opacity="0.5" fill-rule="evenodd" clip-rule="evenodd" d="M24.8933 4.29939C24.2612 4.03973 23.4583 4.03973 21.8542 4.03973C20.25 4.03973 19.4488 4.03973 18.815 4.29939C17.9736 4.64484 17.3038 5.31033 16.9529 6.14952C16.7924 6.53048 16.7309 6.97635 16.7052 7.62381C16.6938 8.09292 16.563 8.55138 16.325 8.95583C16.0871 9.36028 15.7499 9.69736 15.3454 9.93518C14.9333 10.1643 14.47 10.2856 13.9984 10.288C13.5269 10.2904 13.0624 10.1738 12.6479 9.94885C12.0705 9.64477 11.652 9.47735 11.2386 9.42268C10.3341 9.30393 9.41932 9.54705 8.69316 10.0992C8.14991 10.5126 7.74845 11.2028 6.94724 12.5814C6.14432 13.96 5.74457 14.6485 5.65403 15.3233C5.53445 16.2219 5.78045 17.1307 6.33736 17.8499C6.5902 18.1779 6.94724 18.4529 7.49903 18.798C8.31391 19.3054 8.83666 20.1698 8.83666 21.1231C8.83666 22.0763 8.31391 22.9407 7.50074 23.4464C6.94724 23.7932 6.5902 24.0682 6.33566 24.3962C6.06076 24.7515 5.85898 25.1576 5.74198 25.5913C5.62499 26.025 5.5951 26.4776 5.65403 26.9229C5.74457 27.5959 6.14432 28.2861 6.94724 29.6647C7.75016 31.0434 8.14991 31.7318 8.69316 32.1469C9.41749 32.6987 10.3332 32.9413 11.2386 32.8234C11.652 32.7688 12.0705 32.6014 12.6479 32.2973C13.0626 32.0721 13.5274 31.9552 13.9993 31.9576C14.4711 31.96 14.9348 32.0815 15.3471 32.3109C16.1774 32.7893 16.6694 33.6691 16.7052 34.6223C16.7309 35.2715 16.7924 35.7156 16.9529 36.0966C17.3014 36.9337 17.9711 37.5999 18.815 37.9467C19.4471 38.2064 20.25 38.2064 21.8542 38.2064C23.4583 38.2064 24.2612 38.2064 24.8933 37.9467C25.7347 37.6013 26.4045 36.9358 26.7554 36.0966C26.9159 35.7156 26.9774 35.2715 27.0031 34.6223C27.0372 33.6691 27.5309 32.7876 28.3629 32.3109C28.7751 32.0818 29.2384 31.9605 29.7099 31.9581C30.1814 31.9557 30.6459 32.0724 31.0604 32.2973C31.6378 32.6014 32.0563 32.7688 32.4697 32.8234C33.3752 32.943 34.2908 32.6987 35.0152 32.1469C35.5584 31.7335 35.9599 31.0434 36.7611 29.6647C37.564 28.2861 37.9637 27.5976 38.0543 26.9229C38.113 26.4774 38.0828 26.0248 37.9655 25.5911C37.8482 25.1575 37.6461 24.7513 37.3709 24.3962C37.1181 24.0682 36.7611 23.7932 36.2093 23.4481C35.3944 22.9407 34.8717 22.0763 34.8717 21.1231C34.8717 20.1698 35.3944 19.3054 36.2076 18.7997C36.7611 18.4529 37.1181 18.1779 37.3727 17.8499C37.6476 17.4947 37.8493 17.0885 37.9663 16.6548C38.0833 16.2211 38.1132 15.7686 38.0543 15.3233C37.9637 14.6502 37.564 13.96 36.7611 12.5814C35.9582 11.2028 35.5584 10.5143 35.0152 10.0992C34.289 9.54705 33.3742 9.30393 32.4697 9.42268C32.0563 9.47735 31.6378 9.64477 31.0604 9.94885C30.6457 10.1741 30.1809 10.2909 29.709 10.2885C29.2372 10.2861 28.7736 10.1646 28.3612 9.93518C27.957 9.69715 27.6202 9.35998 27.3825 8.95554C27.1449 8.55111 27.0143 8.09276 27.0031 7.62381C26.9774 6.97464 26.9159 6.53048 26.7554 6.14952C26.5817 5.73394 26.3279 5.35665 26.0084 5.0392C25.6889 4.72175 25.31 4.47036 24.8933 4.29939Z" fill="#9747FF"/>
<path d="M27.0185 21.1231C27.0185 23.9538 24.7054 26.2481 21.8542 26.2481C19.0013 26.2481 16.6899 23.9538 16.6899 21.1231C16.6899 18.2924 19.0013 15.9981 21.8542 15.9981C24.7071 15.9981 27.0185 18.2924 27.0185 21.1231Z" fill="#9747FF"/>
</svg>
