<svg width="36" height="36" viewBox="0 0 36 36" fill="none" xmlns="http://www.w3.org/2000/svg">
<g clip-path="url(#clip0_2020_81)">
<path d="M9.25002 10.8314C9.25002 8.89751 10.0182 7.04285 11.3857 5.67539C12.7532 4.30794 14.6078 3.53971 16.5417 3.53971C18.4756 3.53971 20.3302 4.30794 21.6977 5.67539C23.0651 7.04285 23.8334 8.89751 23.8334 10.8314C23.8334 12.7652 23.0651 14.6199 21.6977 15.9874C20.3302 17.3548 18.4756 18.123 16.5417 18.123C14.6078 18.123 12.7532 17.3548 11.3857 15.9874C10.0182 14.6199 9.25002 12.7652 9.25002 10.8314ZM7.5321 22.0197C9.86981 20.5935 13.049 19.5814 16.5417 19.5814C17.194 19.5814 17.8338 19.6154 18.4609 19.6835C18.7114 19.7103 18.9506 19.8016 19.1553 19.9485C19.36 20.0953 19.5232 20.2927 19.629 20.5214C19.7347 20.75 19.7794 21.0022 19.7587 21.2533C19.738 21.5044 19.6526 21.7458 19.5109 21.9541C18.5231 23.4041 17.9965 25.1186 18 26.873C18 28.2147 18.3019 29.4835 18.8386 30.6166C18.9431 30.8373 18.9906 31.0808 18.9765 31.3247C18.9625 31.5685 18.8875 31.805 18.7583 32.0122C18.6291 32.2195 18.4499 32.3911 18.2371 32.5111C18.0244 32.6311 17.7849 32.6957 17.5406 32.6991L16.5417 32.7064C13.2911 32.7064 10.2198 32.5022 7.91856 31.8926C6.77377 31.5893 5.69606 31.1547 4.8794 30.4985C4.0146 29.8043 3.41669 28.8345 3.41669 27.6022C3.41669 26.4545 3.93877 25.3812 4.64752 24.4828C5.36794 23.5714 6.36398 22.7328 7.5321 22.0183V22.0197ZM25.2917 31.248C25.2917 30.8909 25.4229 30.5461 25.6602 30.2792C25.8976 30.0122 26.2247 29.8417 26.5794 29.7999L26.7529 29.7897C27.1246 29.7901 27.4822 29.9325 27.7524 30.1876C28.0227 30.4428 28.1854 30.7915 28.2071 31.1626C28.2289 31.5336 28.1082 31.899 27.8696 32.184C27.6311 32.4691 27.2927 32.6523 26.9236 32.6962L26.75 32.7064C26.3632 32.7064 25.9923 32.5527 25.7188 32.2792C25.4453 32.0058 25.2917 31.6348 25.2917 31.248ZM26.1186 24.321C26.1988 24.182 26.3227 24.0733 26.471 24.0119C26.6193 23.9505 26.7837 23.9397 26.9387 23.9813C27.0938 24.0228 27.2308 24.1143 27.3285 24.2417C27.4262 24.369 27.4792 24.525 27.4792 24.6855C27.4792 24.8824 27.4092 25.0574 27.0111 25.3855L26.7996 25.5518L26.6392 25.6714C26.5313 25.7516 26.4029 25.8464 26.2848 25.9426L26.0821 26.1118C25.7626 26.3848 25.5177 26.7346 25.3704 27.1283C25.2511 27.4768 25.2681 27.8575 25.418 28.194C25.5678 28.5305 25.8395 28.7978 26.1784 28.9423C26.5173 29.0867 26.8983 29.0975 27.2448 28.9725C27.5913 28.8476 27.8777 28.5961 28.0465 28.2687L28.1879 28.1564L28.7086 27.7626L28.8646 27.6372L29.1286 27.4068C29.7206 26.8614 30.3959 25.9951 30.3959 24.6855C30.3964 23.8835 30.1325 23.1037 29.6449 22.4669C29.1574 21.83 28.4735 21.3717 27.6991 21.1629C26.9248 20.9541 26.1032 21.0065 25.3616 21.312C24.62 21.6174 23.9998 22.1588 23.5971 22.8524C23.4024 23.1868 23.3484 23.5848 23.4472 23.959C23.5459 24.3331 23.7892 24.6527 24.1236 24.8474C24.4579 25.0422 24.856 25.0961 25.2301 24.9974C25.6042 24.8986 25.9238 24.6553 26.1186 24.321Z" fill="#9747FF"/>
</g>
<defs>
<clipPath id="clip0_2020_81">
<rect width="35" height="35" fill="white" transform="translate(0.5 0.623047)"/>
</clipPath>
</defs>
</svg>
