<svg width="40" height="40" viewBox="0 0 40 40" fill="none" xmlns="http://www.w3.org/2000/svg">
<path d="M20 23.8333C21.4166 22.5278 22.5628 21.4517 23.4383 20.605C24.3139 19.7583 24.9872 19.0289 25.4583 18.4167C25.9294 17.8044 26.2489 17.27 26.4166 16.8133C26.5844 16.3567 26.6678 15.8633 26.6666 15.3333C26.6666 14.3333 26.3055 13.4722 25.5833 12.75C24.8611 12.0278 24 11.6667 23 11.6667C22.4166 11.6667 21.8539 11.785 21.3116 12.0217C20.7694 12.2583 20.3322 12.5844 20 13C19.6666 12.5833 19.2361 12.2572 18.7083 12.0217C18.1805 11.7861 17.6111 11.6678 17 11.6667C16 11.6667 15.1389 12.0278 14.4166 12.75C13.6944 13.4722 13.3333 14.3333 13.3333 15.3333C13.3333 15.8611 13.4094 16.3472 13.5616 16.7917C13.7139 17.2361 14.0266 17.7639 14.5 18.375C14.9733 18.9861 15.64 19.7156 16.5 20.5633C17.36 21.4111 18.5266 22.5011 20 23.8333ZM8.33331 35V8.33333C8.33331 7.41667 8.65998 6.63222 9.31331 5.98C9.96665 5.32778 10.7511 5.00111 11.6666 5H28.3333C29.25 5 30.035 5.32667 30.6883 5.98C31.3416 6.63333 31.6678 7.41778 31.6666 8.33333V35L20 30L8.33331 35Z" fill="#9747FF"/>
</svg>
